# xmcd
# 
# Track frame offsets:
#     150
#     20218
#     42948
#     54593
#     72980
#     94280
#     116348
#     137990
#     158185
#     177973
#     199208
#     223553
#     243778
#     265043
#     287385
#     306373
#     325113
#     339253
# 
# Disc length: 4713
# 
# Revision: 1
# Processed by: cddbd v1.5.2PL0 Copyright (c) Steve Scherf et al.
# Submitted via: fre:ac v1.0.17
# 
DISCID=08126712
DTITLE=アーティスト情報なし - 大阪ソウルバラード２００５
DYEAR=0
DGENRE=Misc
TTITLE0=やっぱ好きやねん
TTITLE1=月のあかり
TTITLE2=梅田からナンバまで
TTITLE3=大阪ストラット（ｐａｒｔ２）
TTITLE4=悲しい気持で
TTITLE5=なめとんか
TTITLE6=時代おくれ
TTITLE7=大阪ビッグ・リバー・ブルース
TTITLE8=悲しい色やね
TTITLE9=お前が好きやねん
TTITLE10=大阪恋物語
TTITLE11=酒と泪と男と女（Ｏｒｉｇｉｎａｌ　ｖｅｒｓｉｏｎ）
TTITLE12=大阪で生まれた女
TTITLE13=いじめやんといて
TTITLE14=大阪で生まれた男
TTITLE15=あんた
TTITLE16=大阪ラプソディー（ボーナス・トラック）
TTITLE17=六甲おろし（ボーナス・トラック）
EXTD=
EXTT0=
EXTT1=
EXTT2=
EXTT3=
EXTT4=
EXTT5=
EXTT6=
EXTT7=
EXTT8=
EXTT9=
EXTT10=
EXTT11=
EXTT12=
EXTT13=
EXTT14=
EXTT15=
EXTT16=
EXTT17=
PLAYORDER=
